<?xml version="1.0" encoding="UTF-8"?>
<!DOCTYPE svg PUBLIC "-//W3C//DTD SVG 1.1//EN" "http://www.w3.org/Graphics/SVG/1.1/DTD/svg11.dtd">
<svg xmlns="http://www.w3.org/2000/svg" version="1.1" width="512px" height="512px" style="shape-rendering:geometricPrecision; text-rendering:geometricPrecision; image-rendering:optimizeQuality; fill-rule:evenodd; clip-rule:evenodd" xmlns:xlink="http://www.w3.org/1999/xlink">
<g><path style="opacity:0.969" fill="#000000" d="M 46.5,15.5 C 69.8858,15.041 93.2191,15.541 116.5,17C 130.606,22.1058 139.44,31.9392 143,46.5C 143.667,84.5 143.667,122.5 143,160.5C 138.833,176.667 128.667,186.833 112.5,191C 90.5,191.667 68.5,191.667 46.5,191C 30.3333,186.833 20.1667,176.667 16,160.5C 15.3333,122.5 15.3333,84.5 16,46.5C 20.3489,30.3186 30.5156,19.9852 46.5,15.5 Z M 55.5,31.5 C 73.8706,31.0979 92.2039,31.5979 110.5,33C 120.595,37.0998 126.095,44.5998 127,55.5C 127.667,87.5 127.667,119.5 127,151.5C 125.167,165.333 117.333,173.167 103.5,175C 87.5,175.667 71.5,175.667 55.5,175C 41.3333,173.5 33.5,165.667 32,151.5C 31.1877,118.484 31.3544,85.4838 32.5,52.5C 35.4324,40.2168 43.0991,33.2168 55.5,31.5 Z"/></g>
<g><path style="opacity:0.946" fill="#000000" d="M 415.5,15.5 C 448.54,14.54 464.54,30.54 463.5,63.5C 475.215,63.2737 484.382,67.9404 491,77.5C 499.625,95.2996 496.458,110.466 481.5,123C 478.326,124.725 474.993,126.058 471.5,127C 434.167,127.667 396.833,127.667 359.5,127C 348.68,124.339 341.18,117.839 337,107.5C 332.142,91.4192 336.309,78.2526 349.5,68C 352.561,65.9653 355.895,64.7986 359.5,64.5C 359.054,52.1098 364.721,43.9431 376.5,40C 379.882,39.8236 383.215,39.3236 386.5,38.5C 392.948,26.7126 402.615,19.0459 415.5,15.5 Z M 417.5,32.5 C 434.612,30.9576 444.279,38.6243 446.5,55.5C 446.188,61.1001 444.855,66.4335 442.5,71.5C 442.648,74.6297 443.982,77.1297 446.5,79C 452.167,79.3333 457.833,79.6667 463.5,80C 477.344,83.187 481.51,91.3537 476,104.5C 472.736,108.382 468.57,110.549 463.5,111C 431.5,111.667 399.5,111.667 367.5,111C 353.656,107.813 349.49,99.6463 355,86.5C 356.938,83.8941 359.438,82.0608 362.5,81C 366.929,80.3187 371.263,79.3187 375.5,78C 377.167,76.1766 378.167,74.01 378.5,71.5C 373.945,57.8892 378.445,53.5558 392,58.5C 393.967,58.4581 395.801,57.9581 397.5,57C 399.887,52.3282 402.053,47.4949 404,42.5C 407.579,37.7307 412.079,34.3974 417.5,32.5 Z"/></g>
<g><path style="opacity:1" fill="#000000" d="M 63.5,47.5 C 74.1667,47.5 84.8333,47.5 95.5,47.5C 95.5,52.8333 95.5,58.1667 95.5,63.5C 84.8333,63.5 74.1667,63.5 63.5,63.5C 63.5,58.1667 63.5,52.8333 63.5,47.5 Z"/></g>
<g><path style="opacity:1" fill="#000000" d="M 55.5,79.5 C 71.5,79.5 87.5,79.5 103.5,79.5C 103.5,84.8333 103.5,90.1667 103.5,95.5C 87.5,95.5 71.5,95.5 55.5,95.5C 55.5,90.1667 55.5,84.8333 55.5,79.5 Z"/></g>
<g><path style="opacity:0.981" fill="#000000" d="M 163.5,103.5 C 210.501,103.333 257.501,103.5 304.5,104C 320.667,108.167 330.833,118.333 335,134.5C 335.667,146.833 335.667,159.167 335,171.5C 331.869,175.633 328.369,179.466 324.5,183C 343.005,190.52 348.171,203.354 340,221.5C 334.379,229.06 326.879,232.394 317.5,231.5C 313.233,248.935 303.399,262.268 288,271.5C 287.333,274.833 287.333,278.167 288,281.5C 291.636,283.734 295.469,285.568 299.5,287C 312.833,287.333 326.167,287.667 339.5,288C 352.297,292.608 357.964,301.608 356.5,315C 365.891,323.943 372.057,334.776 375,347.5C 375.5,370.164 375.667,392.831 375.5,415.5C 414.168,415.333 452.835,415.5 491.5,416C 493.333,416.5 494.5,417.667 495,419.5C 495.667,432.833 495.667,446.167 495,459.5C 494.5,461.333 493.333,462.5 491.5,463C 484.842,463.5 478.175,463.666 471.5,463.5C 471.666,472.839 471.5,482.173 471,491.5C 470.5,493.333 469.333,494.5 467.5,495C 326.167,495.667 184.833,495.667 43.5,495C 41.6667,494.5 40.5,493.333 40,491.5C 39.5002,482.173 39.3335,472.839 39.5,463.5C 32.825,463.666 26.1583,463.5 19.5,463C 17.6667,462.5 16.5,461.333 16,459.5C 15.3333,446.167 15.3333,432.833 16,419.5C 16.3742,418.584 16.8742,417.75 17.5,417C 56.7477,415.512 96.081,415.012 135.5,415.5C 135.333,392.831 135.5,370.164 136,347.5C 138.943,334.776 145.109,323.943 154.5,315C 153.037,301.605 158.704,292.605 171.5,288C 184.833,287.667 198.167,287.333 211.5,287C 215.531,285.568 219.364,283.734 223,281.5C 223.667,278.167 223.667,274.833 223,271.5C 207.601,262.268 197.767,248.935 193.5,231.5C 177.662,231.335 168.662,223.335 166.5,207.5C 167.845,194.988 174.512,186.822 186.5,183C 179.968,176.802 173.801,170.302 168,163.5C 167.333,160.833 167.333,158.167 168,155.5C 170.11,151.614 171.943,147.614 173.5,143.5C 169.275,134.05 164.775,124.716 160,115.5C 158.593,110.556 159.759,106.556 163.5,103.5 Z M 181.5,119.5 C 221.864,119.041 262.197,119.541 302.5,121C 312.595,125.1 318.095,132.6 319,143.5C 319.667,150.167 319.667,156.833 319,163.5C 315.5,167 312,170.5 308.5,174C 304.316,175.165 301.483,173.665 300,169.5C 298.393,164.012 296.393,158.678 294,153.5C 289.948,151.058 285.781,150.891 281.5,153C 259.414,173.361 233.414,180.695 203.5,175C 198,169.5 192.5,164 187,158.5C 187.427,154.619 188.76,150.953 191,147.5C 191.667,144.833 191.667,142.167 191,139.5C 187.549,132.933 184.382,126.266 181.5,119.5 Z M 282.5,173.5 C 285.774,183.77 292.774,189.77 303.5,191.5C 303.748,202.536 303.248,213.536 302,224.5C 293.746,252.077 275.246,264.577 246.5,262C 226.667,256.833 214.167,244.333 209,224.5C 207.752,213.536 207.252,202.536 207.5,191.5C 222.217,191.913 236.884,191.413 251.5,190C 263.346,187.08 273.68,181.58 282.5,173.5 Z M 188.5,200.5 C 189.5,200.5 190.5,200.5 191.5,200.5C 191.5,205.167 191.5,209.833 191.5,214.5C 185.608,213.736 183.441,210.402 185,204.5C 185.69,202.65 186.856,201.316 188.5,200.5 Z M 319.5,200.5 C 326.385,201.969 328.219,205.969 325,212.5C 323.416,213.861 321.582,214.528 319.5,214.5C 319.5,209.833 319.5,205.167 319.5,200.5 Z M 239.5,278.5 C 250.167,279.833 260.833,279.833 271.5,278.5C 271.5,281.5 271.5,284.5 271.5,287.5C 260.833,287.5 250.167,287.5 239.5,287.5C 239.5,284.5 239.5,281.5 239.5,278.5 Z M 178.5,303.5 C 229.834,303.333 281.168,303.5 332.5,304C 336.958,304.626 339.625,307.126 340.5,311.5C 336.068,335.423 332.068,359.423 328.5,383.5C 279.833,383.5 231.167,383.5 182.5,383.5C 178.932,359.423 174.932,335.423 170.5,311.5C 171.588,307.078 174.254,304.412 178.5,303.5 Z M 252.5,336.5 C 261.85,336.365 264.517,340.532 260.5,349C 251.956,352.322 248.123,349.489 249,340.5C 249.69,338.65 250.856,337.316 252.5,336.5 Z M 157.5,338.5 C 162.945,363.681 166.612,389.181 168.5,415C 162.843,415.499 157.176,415.666 151.5,415.5C 151.106,393.47 151.606,371.47 153,349.5C 154.019,345.603 155.519,341.936 157.5,338.5 Z M 352.5,338.5 C 354.746,340.649 356.246,343.316 357,346.5C 357.993,350.442 358.66,354.442 359,358.5C 359.5,377.497 359.667,396.497 359.5,415.5C 353.824,415.666 348.157,415.499 342.5,415C 343.316,407.579 343.816,400.079 344,392.5C 347.16,374.539 349.994,356.539 352.5,338.5 Z M 183.5,399.5 C 231.5,399.5 279.5,399.5 327.5,399.5C 327.887,404.08 327.053,408.414 325,412.5C 323.352,413.717 321.519,414.55 319.5,415C 276.833,415.667 234.167,415.667 191.5,415C 187,414.5 184.5,412 184,407.5C 183.503,404.854 183.336,402.187 183.5,399.5 Z M 31.5,431.5 C 180.833,431.5 330.167,431.5 479.5,431.5C 479.5,436.833 479.5,442.167 479.5,447.5C 330.167,447.5 180.833,447.5 31.5,447.5C 31.5,442.167 31.5,436.833 31.5,431.5 Z M 55.5,463.5 C 188.833,463.5 322.167,463.5 455.5,463.5C 455.5,468.833 455.5,474.167 455.5,479.5C 322.167,479.5 188.833,479.5 55.5,479.5C 55.5,474.167 55.5,468.833 55.5,463.5 Z"/></g>
<g><path style="opacity:1" fill="#000000" d="M 55.5,111.5 C 71.5,111.5 87.5,111.5 103.5,111.5C 103.5,116.833 103.5,122.167 103.5,127.5C 87.5,127.5 71.5,127.5 55.5,127.5C 55.5,122.167 55.5,116.833 55.5,111.5 Z"/></g>
<g><path style="opacity:1" fill="#000000" d="M 71.5,143.5 C 76.8333,143.5 82.1667,143.5 87.5,143.5C 87.5,148.833 87.5,154.167 87.5,159.5C 82.1667,159.5 76.8333,159.5 71.5,159.5C 71.5,154.167 71.5,148.833 71.5,143.5 Z"/></g>
<g><path style="opacity:0.996" fill="#000000" d="M 407.5,143.5 C 412.833,143.5 418.167,143.5 423.5,143.5C 423.667,158.17 423.5,172.837 423,187.5C 422.626,188.416 422.126,189.25 421.5,190C 400.925,191.477 380.259,191.977 359.5,191.5C 359.5,186.167 359.5,180.833 359.5,175.5C 375.5,175.5 391.5,175.5 407.5,175.5C 407.5,164.833 407.5,154.167 407.5,143.5 Z"/></g>
<g><path style="opacity:1" fill="#000000" d="M 223.5,199.5 C 228.833,199.5 234.167,199.5 239.5,199.5C 239.5,204.833 239.5,210.167 239.5,215.5C 234.167,215.5 228.833,215.5 223.5,215.5C 223.5,210.167 223.5,204.833 223.5,199.5 Z"/></g>
<g><path style="opacity:1" fill="#000000" d="M 271.5,199.5 C 276.833,199.5 282.167,199.5 287.5,199.5C 287.5,204.833 287.5,210.167 287.5,215.5C 282.167,215.5 276.833,215.5 271.5,215.5C 271.5,210.167 271.5,204.833 271.5,199.5 Z"/></g>
<g><path style="opacity:0.927" fill="#000000" d="M 71.5,207.5 C 76.8333,207.5 82.1667,207.5 87.5,207.5C 87.3335,216.839 87.5002,226.173 88,235.5C 106.014,253.347 123.847,271.347 141.5,289.5C 137.833,293.833 133.833,297.833 129.5,301.5C 110.514,283.014 91.6805,264.347 73,245.5C 71.5391,232.933 71.0391,220.266 71.5,207.5 Z"/></g>
<g><path style="opacity:0.927" fill="#000000" d="M 427.5,231.5 C 445.706,229.308 462.706,232.808 478.5,242C 483.102,244.803 487.102,248.303 490.5,252.5C 486.849,256.652 483.016,260.652 479,264.5C 459.005,246.851 436.838,243.684 412.5,255C 408.049,257.783 403.883,260.95 400,264.5C 396.333,260.833 392.667,257.167 389,253.5C 388.333,252.833 388.333,252.167 389,251.5C 400.029,241.237 412.862,234.57 427.5,231.5 Z"/></g>
<g><path style="opacity:0.914" fill="#000000" d="M 430.5,263.5 C 445.155,261.158 457.822,264.992 468.5,275C 464.622,279.214 460.455,283.048 456,286.5C 445,278.5 434,278.5 423,286.5C 418.545,283.048 414.378,279.214 410.5,275C 416.195,269.324 422.862,265.49 430.5,263.5 Z"/></g>
<g><path style="opacity:1" fill="#000000" d="M 431.5,295.5 C 436.833,295.5 442.167,295.5 447.5,295.5C 447.5,300.833 447.5,306.167 447.5,311.5C 442.167,311.5 436.833,311.5 431.5,311.5C 431.5,306.167 431.5,300.833 431.5,295.5 Z"/></g>
<g><path style="opacity:0.933" fill="#000000" d="M 248.5,319.5 C 263.367,317.012 273.534,322.678 279,336.5C 281.982,351.376 276.482,361.543 262.5,367C 247.624,369.982 237.457,364.482 232,350.5C 229.146,335.533 234.646,325.199 248.5,319.5 Z M 252.5,336.5 C 250.856,337.316 249.69,338.65 249,340.5C 248.123,349.489 251.956,352.322 260.5,349C 264.517,340.532 261.85,336.365 252.5,336.5 Z"/></g>
<g><path style="opacity:0.936" fill="#000000" d="M 432.5,329.5 C 437.419,332.748 441.753,336.748 445.5,341.5C 437.681,349.819 429.681,357.986 421.5,366C 411.605,367.449 401.605,367.949 391.5,367.5C 391.5,362.167 391.5,356.833 391.5,351.5C 398.175,351.666 404.842,351.5 411.5,351C 418.703,343.965 425.703,336.798 432.5,329.5 Z"/></g>
</svg>
