<?xml version="1.0" encoding="UTF-8"?>
<!DOCTYPE svg PUBLIC "-//W3C//DTD SVG 1.1//EN" "http://www.w3.org/Graphics/SVG/1.1/DTD/svg11.dtd">
<svg xmlns="http://www.w3.org/2000/svg" version="1.1" width="512px" height="512px" style="shape-rendering:geometricPrecision; text-rendering:geometricPrecision; image-rendering:optimizeQuality; fill-rule:evenodd; clip-rule:evenodd" xmlns:xlink="http://www.w3.org/1999/xlink">
<g><path style="opacity:0.934" fill="#000000" d="M 511.5,392.5 C 511.5,403.167 511.5,413.833 511.5,424.5C 509.734,426.771 507.734,428.937 505.5,431C 499.881,432.022 494.214,432.855 488.5,433.5C 484.064,459.391 468.731,473.391 442.5,475.5C 416.269,473.391 400.936,459.391 396.5,433.5C 339.836,432.333 283.17,432.167 226.5,433C 221.075,461.759 203.742,475.759 174.5,475C 150.706,470.705 137.372,456.538 134.5,432.5C 115.157,436.32 106.491,428.487 108.5,409C 108.48,403.445 108.98,397.945 110,392.5C 111.667,389.5 114,387.167 117,385.5C 117.333,356.5 117.667,327.5 118,298.5C 120.513,294.788 124.013,293.622 128.5,295C 131.094,296.339 132.594,298.506 133,301.5C 133.5,329.165 133.667,356.831 133.5,384.5C 210.167,384.5 286.833,384.5 363.5,384.5C 363.667,336.499 363.5,288.499 363,240.5C 360.833,229 354,222.167 342.5,220C 323.503,219.5 304.503,219.333 285.5,219.5C 285.667,244.502 285.5,269.502 285,294.5C 283.122,301.526 278.622,304.026 271.5,302C 263.833,297.167 256.167,292.333 248.5,287.5C 240.334,292.082 232.334,296.915 224.5,302C 219.063,303.655 214.897,302.155 212,297.5C 211.667,276.833 211.333,256.167 211,235.5C 176.669,271.718 135.169,283.884 86.5,272C 37.6269,255.632 8.62688,222.132 -0.5,171.5C -0.5,161.167 -0.5,150.833 -0.5,140.5C 10.6541,81.8461 45.6541,47.0128 104.5,36C 161.85,31.7469 203.683,54.9135 230,105.5C 243.441,137.968 243.941,170.634 231.5,203.5C 269.168,203.333 306.835,203.5 344.5,204C 364.912,207.746 376.412,219.912 379,240.5C 379.5,249.494 379.666,258.494 379.5,267.5C 394.17,267.333 408.837,267.5 423.5,268C 426.446,268.806 429.112,270.139 431.5,272C 456.333,299.5 481.167,327 506,354.5C 507.267,365.762 507.934,377.095 508,388.5C 509.405,389.731 510.571,391.064 511.5,392.5 Z M 118.5,50.5 C 164.705,52.6771 197.539,74.6771 217,116.5C 233.701,167.218 221.201,209.051 179.5,242C 140.409,266.293 101.076,266.626 61.5,243C 19.4398,210.814 6.2731,169.314 22,118.5C 36.7963,83.7106 62.6297,61.8773 99.5,53C 105.977,52.1379 112.311,51.3046 118.5,50.5 Z M 227.5,220.5 C 241.5,220.5 255.5,220.5 269.5,220.5C 269.667,240.836 269.5,261.169 269,281.5C 262.278,276.973 255.278,272.973 248,269.5C 241.146,272.517 234.646,276.184 228.5,280.5C 227.5,260.511 227.167,240.511 227.5,220.5 Z M 379.5,283.5 C 388.5,283.5 397.5,283.5 406.5,283.5C 406.333,299.837 406.5,316.17 407,332.5C 409.263,339.097 413.763,343.264 420.5,345C 439.167,345.333 457.833,345.667 476.5,346C 478.167,347.667 479.833,349.333 481.5,351C 467.077,357.747 461.744,368.914 465.5,384.5C 459.824,384.334 454.157,384.501 448.5,385C 441.996,388.52 440.996,393.187 445.5,399C 462.405,400.471 479.405,400.971 496.5,400.5C 496.5,405.833 496.5,411.167 496.5,416.5C 372.5,416.5 248.5,416.5 124.5,416.5C 124.5,411.167 124.5,405.833 124.5,400.5C 223.167,400.667 321.834,400.5 420.5,400C 427.418,394.63 427.084,389.63 419.5,385C 406.171,384.5 392.837,384.333 379.5,384.5C 379.5,350.833 379.5,317.167 379.5,283.5 Z M 422.5,287.5 C 436,300.834 449,314.667 461.5,329C 448.788,329.814 436.121,329.647 423.5,328.5C 422.501,314.85 422.167,301.183 422.5,287.5 Z M 486.5,366.5 C 488.167,366.5 489.833,366.5 491.5,366.5C 491.5,372.5 491.5,378.5 491.5,384.5C 483.528,384.364 480.028,380.364 481,372.5C 482.36,369.977 484.193,367.977 486.5,366.5 Z M 150.5,432.5 C 170.167,432.5 189.833,432.5 209.5,432.5C 206.631,448.699 196.965,457.699 180.5,459.5C 163.544,458.21 153.544,449.21 150.5,432.5 Z M 412.5,433.5 C 432.329,432.338 452.329,432.171 472.5,433C 466.233,454.609 452.233,462.609 430.5,457C 420.896,451.9 414.896,444.066 412.5,433.5 Z"/></g>
<g><path style="opacity:0.921" fill="#000000" d="M 82.5,112.5 C 84.9892,112.298 87.3225,112.798 89.5,114C 99.6667,124.167 109.833,134.333 120,144.5C 130.167,134.333 140.333,124.167 150.5,114C 154.999,111.633 158.832,112.467 162,116.5C 162.817,119.964 162.483,123.298 161,126.5C 151.167,136.333 141.333,146.167 131.5,156C 141.667,166.167 151.833,176.333 162,186.5C 164.167,196.333 160.333,200.167 150.5,198C 140.333,187.833 130.167,177.667 120,167.5C 110.167,177.333 100.333,187.167 90.5,197C 83.2452,200.542 78.5786,198.542 76.5,191C 76.6251,189.373 77.1251,187.873 78,186.5C 88.1667,176.333 98.3333,166.167 108.5,156C 98.3333,145.833 88.1667,135.667 78,125.5C 75.5419,119.757 77.0419,115.424 82.5,112.5 Z"/></g>
</svg>
