<?xml version="1.0" encoding="UTF-8"?>
<!DOCTYPE svg PUBLIC "-//W3C//DTD SVG 1.1//EN" "http://www.w3.org/Graphics/SVG/1.1/DTD/svg11.dtd">
<svg xmlns="http://www.w3.org/2000/svg" version="1.1" width="512px" height="512px" style="shape-rendering:geometricPrecision; text-rendering:geometricPrecision; image-rendering:optimizeQuality; fill-rule:evenodd; clip-rule:evenodd" xmlns:xlink="http://www.w3.org/1999/xlink">
<g><path style="opacity:0.938" fill="#000000" d="M 245.5,-0.5 C 252.167,-0.5 258.833,-0.5 265.5,-0.5C 287.03,5.03094 300.03,18.6976 304.5,40.5C 318.837,40.3334 333.171,40.5001 347.5,41C 349.939,41.7739 351.773,43.2739 353,45.5C 353.499,50.1548 353.666,54.8215 353.5,59.5C 377.169,59.3334 400.836,59.5 424.5,60C 436.879,63.7113 444.379,71.8779 447,84.5C 447.667,218.5 447.667,352.5 447,486.5C 443.291,499.375 435.124,507.708 422.5,511.5C 311.167,511.5 199.833,511.5 88.5,511.5C 75.181,508.347 67.0143,500.013 64,486.5C 63.3333,352.5 63.3333,218.5 64,84.5C 66.6211,71.8779 74.1211,63.7113 86.5,60C 110.164,59.5 133.831,59.3334 157.5,59.5C 157.334,54.8215 157.501,50.1548 158,45.5C 159.109,43.1853 160.943,41.6853 163.5,41C 177.829,40.5001 192.163,40.3334 206.5,40.5C 210.962,18.7044 223.962,5.03776 245.5,-0.5 Z M 254.5,15.5 C 275.701,18.2008 287.201,30.2008 289,51.5C 289.707,53.0806 290.54,54.5806 291.5,56C 306.403,57.4674 321.403,57.9674 336.5,57.5C 336.5,78.5 336.5,99.5 336.5,120.5C 282.5,120.5 228.5,120.5 174.5,120.5C 174.5,99.5 174.5,78.5 174.5,57.5C 188.837,57.6666 203.171,57.4999 217.5,57C 218.667,55.8333 219.833,54.6667 221,53.5C 222.296,31.7965 233.463,19.1299 254.5,15.5 Z M 251.5,58.5 C 267.616,59.1748 272.283,66.8414 265.5,81.5C 259.574,86.2247 253.241,86.7247 246.5,83C 239.394,73.0284 241.061,64.8617 251.5,58.5 Z M 93.5,75.5 C 114.833,75.5 136.167,75.5 157.5,75.5C 157.5,81.5 157.5,87.5 157.5,93.5C 139.497,93.3334 121.497,93.5001 103.5,94C 100.667,94.8333 98.8333,96.6667 98,99.5C 97.3333,223.5 97.3333,347.5 98,471.5C 98.8333,474.333 100.667,476.167 103.5,477C 204.833,477.667 306.167,477.667 407.5,477C 409.286,476.215 410.786,475.049 412,473.5C 413.659,349.543 413.993,225.543 413,101.5C 412.716,97.8804 410.883,95.3804 407.5,94C 389.503,93.5001 371.503,93.3334 353.5,93.5C 353.5,87.5 353.5,81.5 353.5,75.5C 374.836,75.3334 396.169,75.5 417.5,76C 423.469,77.2979 427.635,80.7979 430,86.5C 430.667,219.167 430.667,351.833 430,484.5C 428.167,489 425,492.167 420.5,494C 310.5,494.667 200.5,494.667 90.5,494C 86,492.167 82.8333,489 81,484.5C 80.3333,351.833 80.3333,219.167 81,86.5C 83.5373,80.7851 87.7039,77.1184 93.5,75.5 Z M 114.5,110.5 C 128.833,110.5 143.167,110.5 157.5,110.5C 157.334,117.841 157.5,125.174 158,132.5C 159.637,134.81 161.804,136.31 164.5,137C 224.833,137.667 285.167,137.667 345.5,137C 349.02,136.496 351.52,134.663 353,131.5C 353.5,124.508 353.666,117.508 353.5,110.5C 367.833,110.5 382.167,110.5 396.5,110.5C 396.5,227.167 396.5,343.833 396.5,460.5C 302.5,460.5 208.5,460.5 114.5,460.5C 114.5,343.833 114.5,227.167 114.5,110.5 Z M 253.5,347.5 C 280.161,349.995 295.161,364.495 298.5,391C 295.627,416.706 281.293,430.873 255.5,433.5C 229.472,430.805 215.139,416.472 212.5,390.5C 215.344,365.66 229.01,351.326 253.5,347.5 Z"/></g>
<g><path style="opacity:0.928" fill="#000000" d="M 250.5,41.5 C 271.779,41.1146 283.779,51.4479 286.5,72.5C 283.11,94.8752 270.11,104.709 247.5,102C 229.29,95.4198 222.124,82.5865 226,63.5C 230.298,51.6944 238.465,44.3611 250.5,41.5 Z M 251.5,58.5 C 241.061,64.8617 239.394,73.0284 246.5,83C 253.241,86.7247 259.574,86.2247 265.5,81.5C 272.283,66.8414 267.616,59.1748 251.5,58.5 Z"/></g>
<g><path style="opacity:0.913" fill="#000000" d="M 164.5,147.5 C 225.168,147.333 285.834,147.5 346.5,148C 352.607,152.558 352.94,157.558 347.5,163C 346.167,163.333 344.833,163.667 343.5,164C 284.833,164.667 226.167,164.667 167.5,164C 160.132,162.096 157.965,157.596 161,150.5C 162.145,149.364 163.312,148.364 164.5,147.5 Z"/></g>
<g><path style="opacity:0.913" fill="#000000" d="M 164.5,198.5 C 225.168,198.333 285.834,198.5 346.5,199C 352.607,203.558 352.94,208.558 347.5,214C 346.167,214.333 344.833,214.667 343.5,215C 284.833,215.667 226.167,215.667 167.5,215C 160.132,213.096 157.965,208.596 161,201.5C 162.145,200.364 163.312,199.364 164.5,198.5 Z"/></g>
<g><path style="opacity:0.927" fill="#000000" d="M 164.5,249.5 C 225.168,249.333 285.834,249.5 346.5,250C 351.634,253.499 352.634,257.999 349.5,263.5C 348.335,264.584 347.002,265.417 345.5,266C 285.5,266.667 225.5,266.667 165.5,266C 157.848,260.915 157.514,255.415 164.5,249.5 Z"/></g>
<g><path style="opacity:0.927" fill="#000000" d="M 164.5,300.5 C 225.168,300.333 285.834,300.5 346.5,301C 351.634,304.499 352.634,308.999 349.5,314.5C 348.335,315.584 347.002,316.417 345.5,317C 285.5,317.667 225.5,317.667 165.5,317C 157.848,311.915 157.514,306.415 164.5,300.5 Z"/></g>
<g><path style="opacity:0.929" fill="#000000" d="M 244.5,331.5 C 271.467,328.405 292.3,338.072 307,360.5C 320.567,388.685 316.401,413.851 294.5,436C 271.098,453.572 246.764,454.905 221.5,440C 197.997,421.152 190.83,397.319 200,368.5C 208.739,348.729 223.572,336.396 244.5,331.5 Z M 253.5,347.5 C 229.01,351.326 215.344,365.66 212.5,390.5C 215.139,416.472 229.472,430.805 255.5,433.5C 281.293,430.873 295.627,416.706 298.5,391C 295.161,364.495 280.161,349.995 253.5,347.5 Z"/></g>
<g><path style="opacity:0.931" fill="#000000" d="M 277.5,364.5 C 287.194,363.902 290.694,368.235 288,377.5C 275.167,390.333 262.333,403.167 249.5,416C 246.5,416.667 243.5,416.667 240.5,416C 234.333,409.833 228.167,403.667 222,397.5C 220.109,390.386 222.776,386.053 230,384.5C 235.832,387.318 240.832,391.318 245,396.5C 255.728,385.604 266.562,374.937 277.5,364.5 Z"/></g>
</svg>
