<?xml version="1.0" encoding="UTF-8"?>
<!DOCTYPE svg PUBLIC "-//W3C//DTD SVG 1.1//EN" "http://www.w3.org/Graphics/SVG/1.1/DTD/svg11.dtd">
<svg xmlns="http://www.w3.org/2000/svg" version="1.1" width="512px" height="512px" style="shape-rendering:geometricPrecision; text-rendering:geometricPrecision; image-rendering:optimizeQuality; fill-rule:evenodd; clip-rule:evenodd" xmlns:xlink="http://www.w3.org/1999/xlink">
<g><path style="opacity:0.918" fill="#000000" d="M 180.5,23.5 C 247.501,23.3333 314.501,23.5 381.5,24C 416.639,58.1387 451.472,92.6387 486,127.5C 487.662,239.086 487.996,350.753 487,462.5C 484.167,476 476,484.167 462.5,487C 355.144,487.983 247.811,487.65 140.5,486C 87.3869,475.883 50.8869,445.716 31,395.5C 14.9332,342.788 24.9332,295.788 61,254.5C 86.9235,228.541 118.257,214.208 155,211.5C 155.333,156.833 155.667,102.167 156,47.5C 159.449,34.5499 167.615,26.5499 180.5,23.5 Z M 183.5,35.5 C 246.5,35.5 309.5,35.5 372.5,35.5C 372.333,60.5022 372.5,85.5022 373,110.5C 375.628,126.795 385.128,135.961 401.5,138C 426.164,138.5 450.831,138.667 475.5,138.5C 475.667,245.501 475.5,352.501 475,459.5C 473.167,468 468,473.167 459.5,475C 379.5,475.667 299.5,475.667 219.5,475C 269.948,448.826 296.615,407.159 299.5,350C 296.59,288.79 267.256,245.79 211.5,221C 197.307,215.661 182.64,212.828 167.5,212.5C 167.333,158.499 167.5,104.499 168,50.5C 170.455,42.5428 175.621,37.5428 183.5,35.5 Z M 385.5,45.5 C 412.299,71.7984 438.965,98.2984 465.5,125C 443.167,125.667 420.833,125.667 398.5,125C 392.333,122.833 388.167,118.667 386,112.5C 385.5,90.1692 385.333,67.8358 385.5,45.5 Z M 146.5,224.5 C 200.945,221.137 242.445,242.47 271,288.5C 287.375,319.008 291.042,351.008 282,384.5C 263.545,438.284 226.045,468.45 169.5,475C 112.349,475.687 71.1824,450.52 46,399.5C 26.0159,345.413 36.1825,297.913 76.5,257C 96.7211,239.388 120.054,228.555 146.5,224.5 Z"/></g>
<g><path style="opacity:0.938" fill="#000000" d="M 265.5,178.5 C 315.168,178.333 364.834,178.5 414.5,179C 418.155,182.806 417.822,186.473 413.5,190C 364.833,190.667 316.167,190.667 267.5,190C 263.708,187.947 262.542,184.781 264,180.5C 264.717,179.956 265.217,179.289 265.5,178.5 Z"/></g>
<g><path style="opacity:0.891" fill="#000000" d="M 158.5,238.5 C 161.97,237.875 164.804,238.875 167,241.5C 167.667,248.5 167.667,255.5 167,262.5C 166.5,263.667 165.667,264.5 164.5,265C 161.331,265.978 158.497,265.478 156,263.5C 155.333,256.167 155.333,248.833 156,241.5C 156.698,240.309 157.531,239.309 158.5,238.5 Z"/></g>
<g><path style="opacity:0.924" fill="#000000" d="M 329.5,248.5 C 357.835,248.333 386.169,248.5 414.5,249C 418.652,253.044 418.319,256.71 413.5,260C 385.833,260.667 358.167,260.667 330.5,260C 325.761,256.595 325.427,252.762 329.5,248.5 Z"/></g>
<g><path style="opacity:0.861" fill="#000000" d="M 83.5,269.5 C 85.8568,269.337 88.1902,269.503 90.5,270C 94.6667,274.167 98.8333,278.333 103,282.5C 104.482,290.689 101.315,293.522 93.5,291C 87.9887,286.502 83.6554,281.169 80.5,275C 81.1242,272.915 82.1242,271.082 83.5,269.5 Z"/></g>
<g><path style="opacity:0.894" fill="#000000" d="M 232.5,269.5 C 239.665,268.497 242.498,271.497 241,278.5C 236.833,282.667 232.667,286.833 228.5,291C 221.943,293.644 218.776,291.477 219,284.5C 223.337,279.331 227.837,274.331 232.5,269.5 Z"/></g>
<g><path style="opacity:0.925" fill="#000000" d="M 158.5,300.5 C 161.97,299.875 164.804,300.875 167,303.5C 167.667,319.833 167.667,336.167 167,352.5C 166.167,353.333 165.333,354.167 164.5,355C 153.5,355.667 142.5,355.667 131.5,355C 127.513,351.38 127.513,347.713 131.5,344C 139.493,343.5 147.493,343.334 155.5,343.5C 155.333,330.163 155.5,316.829 156,303.5C 156.698,302.309 157.531,301.309 158.5,300.5 Z"/></g>
<g><path style="opacity:0.922" fill="#000000" d="M 329.5,318.5 C 357.835,318.333 386.169,318.5 414.5,319C 418.591,323.125 418.258,326.791 413.5,330C 385.833,330.667 358.167,330.667 330.5,330C 325.547,326.657 325.214,322.824 329.5,318.5 Z"/></g>
<g><path style="opacity:0.893" fill="#000000" d="M 53.5,343.5 C 60.5079,343.334 67.5079,343.5 74.5,344C 78.4875,347.713 78.4875,351.38 74.5,355C 67.1667,355.667 59.8333,355.667 52.5,355C 49.6809,350.899 50.0142,347.065 53.5,343.5 Z"/></g>
<g><path style="opacity:0.89" fill="#000000" d="M 248.5,343.5 C 255.508,343.334 262.508,343.5 269.5,344C 273.487,347.713 273.487,351.38 269.5,355C 262.167,355.667 254.833,355.667 247.5,355C 244.689,350.856 245.022,347.022 248.5,343.5 Z"/></g>
<g><path style="opacity:0.927" fill="#000000" d="M 329.5,388.5 C 357.835,388.333 386.169,388.5 414.5,389C 418.591,393.125 418.258,396.791 413.5,400C 385.833,400.667 358.167,400.667 330.5,400C 325.547,396.657 325.214,392.824 329.5,388.5 Z"/></g>
<g><path style="opacity:0.9" fill="#000000" d="M 94.5,407.5 C 102,406.166 104.833,409.166 103,416.5C 98.8333,420.667 94.6667,424.833 90.5,429C 84.3886,431.192 81.2219,429.025 81,422.5C 85.3371,417.331 89.8371,412.331 94.5,407.5 Z"/></g>
<g><path style="opacity:0.86" fill="#000000" d="M 221.5,407.5 C 223.857,407.337 226.19,407.503 228.5,408C 232.667,412.167 236.833,416.333 241,420.5C 242.493,428.677 239.326,431.51 231.5,429C 226.194,424.538 221.861,419.371 218.5,413.5C 218.984,411.199 219.984,409.199 221.5,407.5 Z"/></g>
<g><path style="opacity:0.894" fill="#000000" d="M 158.5,433.5 C 161.97,432.875 164.804,433.875 167,436.5C 167.667,443.5 167.667,450.5 167,457.5C 163.61,461.032 159.943,461.366 156,458.5C 155.333,451.167 155.333,443.833 156,436.5C 156.698,435.309 157.531,434.309 158.5,433.5 Z"/></g>
</svg>
