<?xml version="1.0" encoding="UTF-8"?>
<!DOCTYPE svg PUBLIC "-//W3C//DTD SVG 1.1//EN" "http://www.w3.org/Graphics/SVG/1.1/DTD/svg11.dtd">
<svg xmlns="http://www.w3.org/2000/svg" version="1.1" width="512px" height="512px" style="shape-rendering:geometricPrecision; text-rendering:geometricPrecision; image-rendering:optimizeQuality; fill-rule:evenodd; clip-rule:evenodd" xmlns:xlink="http://www.w3.org/1999/xlink">
<g><path style="opacity:0.948" fill="#000000" d="M 176.5,-0.5 C 186.5,-0.5 196.5,-0.5 206.5,-0.5C 258.556,10.1961 289.056,41.8628 298,94.5C 300.658,148.135 277.491,185.635 228.5,207C 180.466,221.427 139.966,209.927 107,172.5C 85.0761,142.872 79.0761,110.206 89,74.5C 103.899,32.7619 133.066,7.76189 176.5,-0.5 Z M 181.5,21.5 C 221.58,19.4469 250.747,36.1136 269,71.5C 283.859,111.899 275.026,146.066 242.5,174C 205.962,197.763 170.295,196.43 135.5,170C 108.473,143.727 100.64,112.56 112,76.5C 125.263,45.6222 148.43,27.2889 181.5,21.5 Z"/></g>
<g><path style="opacity:0.947" fill="#000000" d="M 511.5,356.5 C 511.5,367.5 511.5,378.5 511.5,389.5C 502.557,443.538 472.891,481.372 422.5,503C 411.644,506.93 400.644,509.764 389.5,511.5C 378.5,511.5 367.5,511.5 356.5,511.5C 302.56,503.072 264.726,473.739 243,423.5C 222.538,360.915 236.705,307.748 285.5,264C 329.601,231.554 377.268,225.22 428.5,245C 475.743,267.676 503.41,304.842 511.5,356.5 Z M 371.5,255.5 C 421.819,257.731 457.986,281.398 480,326.5C 497.283,371.26 490.949,412.26 461,449.5C 424.725,487.36 381.559,498.194 331.5,482C 283.693,461.394 258.693,425.061 256.5,373C 258.37,323.57 281.37,287.903 325.5,266C 340.348,259.734 355.682,256.234 371.5,255.5 Z"/></g>
<g><path style="opacity:0.962" fill="#000000" d="M -0.5,441.5 C -0.5,406.833 -0.5,372.167 -0.5,337.5C 8.98693,292.513 36.3203,265.347 81.5,256C 128.833,255.333 176.167,255.333 223.5,256C 229.486,260.168 230.986,265.668 228,272.5C 226.269,274.617 224.102,276.117 221.5,277C 176.167,277.333 130.833,277.667 85.5,278C 52.4108,284.423 31.5774,303.923 23,336.5C 21.5401,366.125 21.0401,395.791 21.5,425.5C 79.8343,425.333 138.168,425.5 196.5,426C 203.8,429.438 205.967,434.938 203,442.5C 201.833,444.333 200.333,445.833 198.5,447C 134.167,447.667 69.8333,447.667 5.5,447C 2.97739,445.64 0.977392,443.807 -0.5,441.5 Z"/></g>
<g><path style="opacity:0.936" fill="#000000" d="M 369.5,297.5 C 375.185,296.893 379.685,298.893 383,303.5C 383.333,324.833 383.667,346.167 384,367.5C 398.029,381.195 411.696,395.195 425,409.5C 428.215,421.287 423.715,426.787 411.5,426C 394.365,411.199 378.199,395.366 363,378.5C 361.363,354.23 361.029,329.896 362,305.5C 363.353,301.65 365.853,298.983 369.5,297.5 Z"/></g>
</svg>
